<svg width="400" height="53" viewBox="0 0 400 53" fill="none" xmlns="http://www.w3.org/2000/svg">
<path fill-rule="evenodd" clip-rule="evenodd" d="M8.6958 18.1159L8.6958 28.9859L14.6788 28.9859C23.1308 28.9859 26.7628 30.2179 26.7998 33.0999C26.8268 35.1229 24.5018 36.2319 20.2378 36.2319L15.9418 36.2319L15.9418 39.8549L15.9418 43.4779L20.9668 43.4779C32.8748 43.4779 39.5948 32.9719 31.5188 26.9809L29.8248 25.7249L31.7598 23.6839C34.2958 21.0109 34.5168 14.9939 32.1948 11.8289C29.4658 8.10794 26.6538 7.24894 17.2098 7.24794L8.6958 7.24594L8.6958 18.1159ZM39.1298 22.1009L39.1298 36.9569L37.3188 36.9569C35.6548 36.9569 35.5068 37.2219 35.5068 40.2169L35.5068 43.4779L43.4778 43.4779L51.4488 43.4779L51.4488 40.2169C51.4488 37.0769 51.3688 36.9569 49.2748 36.9569L47.1008 36.9569L47.1008 22.1009L47.1008 7.24594L43.1158 7.24594L39.1298 7.24594L39.1298 22.1009ZM51.4488 10.5069L51.4488 13.7679L62.6808 13.7679L73.9128 13.7679L73.9128 10.5069L73.9128 7.24594L62.6808 7.24594L51.4488 7.24594L51.4488 10.5069ZM78.9118 8.89094C69.7938 14.9819 73.3898 26.6839 84.9688 28.6019C89.9488 29.4269 91.2648 33.9539 87.0778 35.8599C85.7778 36.4519 85.5068 37.1869 85.5068 40.1219L85.5068 43.6689L88.4768 43.2709C94.9488 42.4029 98.8308 35.0939 96.3288 28.4889C94.7348 24.2849 92.0058 22.5259 85.3348 21.4069C81.8338 20.8189 80.5788 18.7479 82.2118 16.2559C83.9828 13.5519 88.2568 13.9069 89.3418 16.8479C89.7038 17.8309 90.6488 18.1159 93.5458 18.1159L97.2828 18.1159L96.8188 15.7989C95.3078 8.24394 85.5268 4.47194 78.9118 8.89094ZM108.696 18.0229L108.696 28.7989L116.618 29.1259C125.086 29.4749 126.812 30.1359 126.812 33.0339C126.812 35.3069 124.834 36.2319 119.975 36.2319L115.942 36.2319L115.942 39.8549L115.942 43.4779L120.967 43.4779C132.85 43.4779 139.091 34.2799 132.048 27.1479C130.715 25.7989 130.372 25.0439 130.994 24.8269C133.874 23.8239 135.006 15.9589 132.806 12.2339C130.576 8.45894 126.773 7.24594 117.163 7.24594L108.696 7.24594L108.696 18.0229ZM135.507 18.8409L135.507 30.4349L139.13 30.4349L142.754 30.4349L142.754 18.8409L142.754 7.24594L139.13 7.24594L135.507 7.24594L135.507 18.8409ZM166.667 8.40194C158.551 11.9169 154.195 23.4089 157.6 32.3249C163.55 47.9049 186.243 47.3929 190.963 31.5709C195.682 15.7529 181.319 2.05494 166.667 8.40194ZM205.068 7.92294C196.672 10.4769 191.959 18.1229 193.051 27.4159C194.383 38.7489 200.73 43.4779 214.608 43.4779L221.014 43.4779L221.014 39.8549L221.014 36.2319L214.663 36.2319C204.312 36.2319 200.361 32.8519 200.907 24.4659C201.298 18.4729 205.404 14.4929 211.196 14.4929L213.768 14.4929L213.768 18.4779L213.768 22.4639L217.391 22.4639L221.014 22.4639L221.014 14.8549L221.014 7.24594L213.949 7.30894C210.063 7.34294 206.067 7.61994 205.068 7.92294ZM222.489 24.4569L222.514 41.6669L227.389 36.3439L232.265 31.0209L237.201 37.2499L242.137 43.4779L246.793 43.4779C252.693 43.4779 252.74 43.6759 244.565 34.0579C240.779 29.6029 237.681 25.8129 237.681 25.6359C237.681 25.4579 240.779 21.5089 244.565 16.8599C252.727 6.83794 252.628 7.24394 246.92 7.25594L242.391 7.26594L236.232 14.9609L230.072 22.6559L229.867 14.9509L229.661 7.24594L226.062 7.24594L222.464 7.24594L222.489 24.4569ZM262.762 8.69794C255.794 11.4189 252.899 16.1329 252.899 24.7579C252.899 37.9859 258.114 42.8059 273.007 43.3409L281.159 43.6349L281.159 39.9329L281.159 36.2319L274.383 36.2319C266.603 36.2319 263.675 34.9199 261.414 30.4199C257.856 23.3389 262.846 14.4929 270.397 14.4929L273.188 14.4929L273.188 18.4779L273.188 22.4639L277.174 22.4639L281.159 22.4639L281.159 14.8549L281.159 7.24594L273.732 7.27994C268.205 7.30494 265.398 7.66794 262.762 8.69794ZM281.884 15.2169L281.884 23.1879L285.507 23.1879L289.13 23.1879L289.13 15.2169L289.13 7.24594L285.507 7.24594L281.884 7.24594L281.884 15.2169ZM302.174 18.5899L302.174 29.9329L292.029 29.4489L281.884 28.9649L281.884 36.2219L281.884 43.4779L285.507 43.4779L289.13 43.4779L289.13 40.2169L289.13 36.9569L295.652 36.9569L302.174 36.9569L302.174 40.2169L302.174 43.4779L306.159 43.4779L310.145 43.4779L310.145 25.3619L310.145 7.24594L306.159 7.24594L302.174 7.24594L302.174 18.5899ZM317.572 24.5299C309.649 44.9499 309.875 43.4789 314.674 43.4759L318.478 43.4739L321.688 34.0649C323.454 28.8909 325.011 24.7699 325.149 24.9079C325.287 25.0459 326.823 29.1989 328.561 34.1369L331.723 43.1159L335.881 43.3359C339.072 43.5049 339.953 43.3359 339.664 42.6109C339.458 42.0919 336.272 33.9219 332.586 24.4569C328.899 14.9909 325.521 7.24794 325.079 7.24994C324.637 7.25194 321.259 15.0279 317.572 24.5299ZM344.928 22.1009L344.928 36.9569L342.754 36.9569C340.66 36.9569 340.58 37.0769 340.58 40.2169L340.58 43.4779L348.551 43.4779L356.522 43.4779L356.522 40.2169C356.522 37.0769 356.441 36.9569 354.348 36.9569L352.174 36.9569L352.174 22.1009L352.174 7.24594L348.551 7.24594L344.928 7.24594L344.928 22.1009ZM356.522 21.0139L356.522 34.7829L360.48 34.7829L364.438 34.7829L364.647 28.2279L364.855 21.6739L372.397 32.5759L379.938 43.4779L383.81 43.4779L387.681 43.4779L387.681 25.3619L387.681 7.24594L384.076 7.24594L380.472 7.24594L380.272 18.5949L380.072 29.9429L372.146 18.5949L364.22 7.24594L360.371 7.24594L356.522 7.24594L356.522 21.0139ZM23.5738 14.8179C28.8098 17.0059 26.2798 21.7389 19.8758 21.7389L15.9418 21.7389L15.9418 17.7539L15.9418 13.7679L18.5018 13.7679C19.9088 13.7679 22.1918 14.2409 23.5738 14.8179ZM125.077 15.2809C128.384 18.0259 125.451 21.7389 119.975 21.7389L116.667 21.7389L116.667 17.6529L116.667 13.5659L120.367 14.0039C122.402 14.2449 124.521 14.8199 125.077 15.2809ZM179.564 15.6899C185.43 19.4079 185.686 30.2369 180.013 34.6999C172.165 40.8729 161.313 31.9619 164.508 21.9679C166.73 15.0179 173.831 12.0569 179.564 15.6899ZM58.6958 31.8839L58.6958 43.4779L62.3188 43.4779L65.9418 43.4779L65.9418 31.8839L65.9418 20.2899L62.3188 20.2899L58.6958 20.2899L58.6958 31.8839ZM171.357 23.2099C169.449 25.3189 170.627 28.5339 173.427 28.8569C176.013 29.1549 177.536 27.8809 177.536 25.4189C177.536 21.7319 173.878 20.4239 171.357 23.2099ZM135.507 39.8549L135.507 43.4779L145.652 43.4779L155.797 43.4779L155.797 39.8549L155.797 36.2319L145.652 36.2319L135.507 36.2319L135.507 39.8549Z" fill="white"/>
</svg>
